<?xml version="1.0" encoding="UTF-8" standalone="no"?>
<!DOCTYPE svg PUBLIC "-//W3C//DTD SVG 1.1//EN" "http://www.w3.org/Graphics/SVG/1.1/DTD/svg11.dtd">
<svg xmlns="http://www.w3.org/2000/svg" version="1.1" viewBox="0.00 0.00 563.00 558.00" width="563.00" height="558.00">
<g stroke-width="2.00" fill="none" stroke-linecap="butt">
<path stroke="#003e59" vector-effect="non-scaling-stroke" d="
  M 523.70 135.80
  L 521.79 135.84
  L 520.30 135.49
  L 519.88 135.40
  L 519.42 135.51
  L 517.91 136.00
  L 516.47 136.04
  L 516.47 136.04
  L 516.47 136.04
  L 515.45 135.80
  L 514.47 135.32
  L 514.08 135.15
  L 513.50 135.10
  L 511.42 135.16
  L 509.98 135.00
  L 508.63 134.63
  L 507.37 134.20
  L 504.20 133.40
  L 503.04 132.98
  L 501.84 132.60
  L 501.04 132.69
  L 500.97 132.70
  L 500.55 132.58
  L 500.37 132.18
  L 500.37 131.75
  L 500.21 131.28
  L 499.74 131.11
  L 498.19 131.15
  L 495.41 131.18
  L 493.52 130.88
  L 491.39 129.90
  L 485.41 126.32
  L 484.37 125.64
  L 483.32 124.67
  L 481.58 123.18
  L 480.98 122.82
  L 480.64 122.58
  L 480.32 122.22
  L 479.41 121.27
  L 478.00 120.35
  L 476.17 119.52
  L 473.70 118.64
  L 473.57 118.60
  L 473.18 118.36
  L 472.98 117.93
  L 472.60 117.18
  L 472.15 116.94
  L 471.54 116.87
  L 471.04 116.69
  L 470.79 116.21
  L 470.64 115.85
  L 470.27 115.69
  L 469.83 115.50
  L 469.64 115.09
  L 469.28 114.26
  L 468.94 113.95
  L 462.99 110.01
  L 461.86 109.48
  L 460.26 109.10
  L 459.88 108.90
  L 459.90 108.45
  L 459.91 108.20
  L 459.66 108.06
  L 459.44 108.07
  L 459.26 108.22
  L 459.00 108.39
  L 458.70 108.24
  L 458.65 108.14
  L 458.70 108.00
  L 458.76 107.83
  L 458.65 107.70
  L 457.96 107.55
  L 457.75 107.74"
/>
<path stroke="#004a6b" vector-effect="non-scaling-stroke" d="
  M 234.24 38.49
  L 234.06 38.17
  L 234.37 37.43
  L 234.57 37.06
  L 234.56 36.68
  L 234.59 35.52
  L 235.33 34.53
  L 235.49 34.29
  L 235.25 34.14
  L 235.21 34.13
  L 234.87 34.13
  L 235.09 34.10
  L 235.12 34.08
  L 235.24 33.97
  L 235.26 33.79
  L 234.83 30.60
  L 234.94 27.81
  L 235.10 25.70
  L 234.94 23.64
  L 234.52 21.82
  L 234.34 20.22
  L 234.74 18.78
  L 234.80 18.45
  L 234.69 18.18
  L 234.26 17.12
  L 234.27 16.30
  L 234.39 14.57
  L 234.09 12.97
  L 234.09 12.97
  L 233.12 11.12
  L 232.89 10.66
  L 232.83 10.28
  L 232.86 10.14
  L 232.96 10.04
  L 233.25 9.70
  L 232.97 9.33
  L 232.40 8.83
  L 231.85 7.74
  L 231.89 7.70
  L 231.91 7.71
  L 232.07 7.81
  L 232.25 7.72
  L 232.35 7.53
  L 232.24 7.34
  L 229.70 5.13"
/>
<path stroke="#003e59" vector-effect="non-scaling-stroke" d="
  M 12.85 364.74
  L 13.10 364.81
  L 13.10 364.81
  L 13.70 365.54
  L 13.97 367.01
  L 13.97 367.04
  L 14.33 367.25
  L 14.95 367.14
  L 15.47 367.26
  L 16.03 367.80
  L 16.30 368.10
  L 16.70 368.24
  L 17.09 368.35
  L 17.37 368.57
  L 19.45 370.73
  L 20.42 371.84
  L 21.17 373.03
  L 22.01 374.34
  L 23.32 375.84
  L 24.46 377.13
  L 28.15 381.50
  L 32.13 385.84
  L 32.74 386.73
  L 33.55 387.75
  L 34.02 388.00
  L 34.53 388.28
  L 34.84 388.59
  L 37.12 391.01
  L 38.26 391.94
  L 40.59 394.01
  L 41.53 395.04
  L 41.68 395.22
  L 42.98 396.49
  L 44.47 397.60
  L 46.15 398.54
  L 48.01 399.32
  L 49.66 400.09
  L 51.06 401.14
  L 51.06 401.14
  L 52.14 402.40
  L 52.45 402.71
  L 52.82 402.90
  L 64.42 406.75
  L 64.83 406.58
  L 65.00 406.40
  L 65.21 406.37
  L 66.98 406.87
  L 68.25 407.80
  L 68.25 407.80
  L 68.68 408.39
  L 68.78 408.49
  L 68.82 408.36
  L 68.84 408.26
  L 68.92 408.18
  L 69.04 408.18
  L 70.76 408.91
  L 72.56 409.99"
/>
</g>
<g fill="#00374e">
<path d="
  M 523.70 135.80
  L 527.54 142.20
  L 531.20 148.78
  L 534.69 155.54
  L 538.00 162.48
  L 541.14 169.59
  L 544.11 176.88
  L 546.90 184.35
  L 549.51 192.00
  L 551.72 199.09
  L 553.71 206.22
  L 555.50 213.40
  L 557.08 220.62
  L 557.08 220.62
  L 558.45 227.90
  L 559.61 235.23
  L 560.55 242.60
  L 561.29 250.01
  L 563.00 269.62
  L 563.00 285.28
  L 560.92 308.49
  L 560.02 316.41
  L 558.82 324.25
  L 557.33 332.01
  L 555.53 339.68
  L 552.03 352.54
  L 548.16 365.04
  L 543.93 377.18
  L 539.33 388.97
  L 534.41 400.07
  L 529.01 410.58
  L 524.91 417.81
  L 520.72 424.79
  L 516.46 431.49
  L 512.13 437.90
  L 507.70 444.09
  L 503.22 449.97
  L 498.61 455.65
  L 493.96 461.00
  L 487.26 468.24
  L 480.38 475.22
  L 473.33 481.93
  L 466.10 488.38
  L 458.71 494.57
  L 451.14 500.49
  L 443.39 506.15
  L 435.48 511.55
  L 435.48 511.55
  L 433.59 512.78
  L 425.43 517.86
  L 417.13 522.63
  L 408.68 527.10
  L 400.10 531.27
  L 400.10 531.27
  L 386.87 536.98
  L 373.32 541.99
  L 359.44 546.31
  L 345.25 549.94
  L 330.02 553.06
  L 314.96 555.45
  L 300.08 557.10
  L 285.37 558.00
  L 273.50 558.00
  L 260.64 557.10
  L 250.75 556.20
  L 242.75 555.25
  L 234.96 554.11
  L 227.39 552.78
  L 220.02 551.27
  L 212.86 549.57
  L 205.91 547.69
  L 199.17 545.62
  L 192.64 543.36
  L 175.68 536.89
  L 161.61 530.90
  L 149.11 524.80
  L 143.37 521.68
  L 137.91 518.47
  L 129.85 513.17
  L 115.71 503.40
  L 109.24 498.74
  L 103.00 493.97
  L 96.84 488.98
  L 90.95 483.92
  L 85.26 478.74
  L 79.88 473.53
  L 74.68 468.17
  L 69.83 462.82
  L 63.59 455.50
  L 57.64 448.10
  L 51.99 440.64
  L 46.64 433.10
  L 41.58 425.50
  L 36.82 417.83
  L 32.36 410.08
  L 28.19 402.27
  L 24.13 393.88
  L 20.23 384.83
  L 16.46 375.11
  L 12.85 364.74
  L 13.10 364.81
  L 13.10 364.81
  L 13.70 365.54
  L 13.97 367.01
  L 13.97 367.04
  L 14.33 367.25
  L 14.95 367.14
  L 15.47 367.26
  L 16.03 367.80
  L 16.30 368.10
  L 16.70 368.24
  L 17.09 368.35
  L 17.37 368.57
  L 19.45 370.73
  L 20.42 371.84
  L 21.17 373.03
  L 22.01 374.34
  L 23.32 375.84
  L 24.46 377.13
  L 28.15 381.50
  L 32.13 385.84
  L 32.74 386.73
  L 33.55 387.75
  L 34.02 388.00
  L 34.53 388.28
  L 34.84 388.59
  L 37.12 391.01
  L 38.26 391.94
  L 40.59 394.01
  L 41.53 395.04
  L 41.68 395.22
  L 42.98 396.49
  L 44.47 397.60
  L 46.15 398.54
  L 48.01 399.32
  L 49.66 400.09
  L 51.06 401.14
  L 51.06 401.14
  L 52.14 402.40
  L 52.45 402.71
  L 52.82 402.90
  L 64.42 406.75
  L 64.83 406.58
  L 65.00 406.40
  L 65.21 406.37
  L 66.98 406.87
  L 68.25 407.80
  L 68.25 407.80
  L 68.68 408.39
  L 68.78 408.49
  L 68.82 408.36
  L 68.84 408.26
  L 68.92 408.18
  L 69.04 408.18
  L 70.76 408.91
  L 72.56 409.99
  L 80.39 421.30
  L 88.69 431.97
  L 97.43 441.99
  L 106.64 451.36
  L 115.33 459.32
  L 124.56 467.04
  L 134.32 474.52
  L 144.61 481.75
  L 155.74 488.84
  L 167.13 495.28
  L 178.77 501.09
  L 190.68 506.26
  L 190.68 506.26
  L 190.68 506.26
  L 190.68 506.26
  L 190.68 506.26
  L 198.26 509.16
  L 205.94 511.82
  L 213.73 514.23
  L 221.62 516.38
  L 229.60 518.29
  L 237.69 519.94
  L 245.88 521.35
  L 254.17 522.50
  L 264.07 523.47
  L 274.24 523.95
  L 284.48 523.95
  L 294.93 523.47
  L 305.49 522.50
  L 316.22 521.04
  L 326.93 519.12
  L 337.74 516.72
  L 346.50 514.42
  L 355.14 511.80
  L 363.65 508.88
  L 372.03 505.65
  L 381.49 501.56
  L 390.78 497.06
  L 399.90 492.15
  L 408.86 486.84
  L 415.72 482.43
  L 422.45 477.81
  L 428.97 473.05
  L 435.34 468.10
  L 441.54 462.96
  L 447.59 457.63
  L 453.39 452.19
  L 459.02 446.58
  L 464.42 440.83
  L 469.63 434.92
  L 474.59 428.93
  L 479.34 422.78
  L 483.82 416.56
  L 488.09 410.20
  L 492.08 403.78
  L 495.86 397.22
  L 499.15 391.01
  L 502.55 384.08
  L 509.70 368.01
  L 513.78 357.75
  L 517.36 347.59
  L 520.39 337.62
  L 522.92 327.74
  L 524.95 317.92
  L 526.46 308.22
  L 527.46 298.63
  L 527.94 289.16
  L 528.11 274.87
  L 527.91 261.50
  L 527.47 253.43
  L 526.61 245.15
  L 525.34 236.65
  L 523.65 227.96
  L 521.55 219.08
  L 519.03 209.98
  L 516.07 200.55
  L 512.68 190.84
  L 510.28 184.64
  L 507.61 178.43
  L 504.67 172.23
  L 501.47 166.03
  L 498.01 159.83
  L 494.28 153.63
  L 490.29 147.43
  L 486.03 141.23
  L 479.22 132.03
  L 472.24 123.38
  L 465.08 115.28
  L 457.75 107.74
  L 457.96 107.55
  L 458.65 107.70
  L 458.76 107.83
  L 458.70 108.00
  L 458.65 108.14
  L 458.70 108.24
  L 459.00 108.39
  L 459.26 108.22
  L 459.44 108.07
  L 459.66 108.06
  L 459.91 108.20
  L 459.90 108.45
  L 459.88 108.90
  L 460.26 109.10
  L 461.86 109.48
  L 462.99 110.01
  L 468.94 113.95
  L 469.28 114.26
  L 469.64 115.09
  L 469.83 115.50
  L 470.27 115.69
  L 470.64 115.85
  L 470.79 116.21
  L 471.04 116.69
  L 471.54 116.87
  L 472.15 116.94
  L 472.60 117.18
  L 472.98 117.93
  L 473.18 118.36
  L 473.57 118.60
  L 473.70 118.64
  L 476.17 119.52
  L 478.00 120.35
  L 479.41 121.27
  L 480.32 122.22
  L 480.64 122.58
  L 480.98 122.82
  L 481.58 123.18
  L 483.32 124.67
  L 484.37 125.64
  L 485.41 126.32
  L 491.39 129.90
  L 493.52 130.88
  L 495.41 131.18
  L 498.19 131.15
  L 499.74 131.11
  L 500.21 131.28
  L 500.37 131.75
  L 500.37 132.18
  L 500.55 132.58
  L 500.97 132.70
  L 501.04 132.69
  L 501.84 132.60
  L 503.04 132.98
  L 504.20 133.40
  L 507.37 134.20
  L 508.63 134.63
  L 509.98 135.00
  L 511.42 135.16
  L 513.50 135.10
  L 514.08 135.15
  L 514.47 135.32
  L 515.45 135.80
  L 516.47 136.04
  L 516.47 136.04
  L 517.91 136.00
  L 519.42 135.51
  L 519.88 135.40
  L 520.30 135.49
  L 521.79 135.84
  L 523.70 135.80
  Z"
/>
<path d="
  M 401.37 120.71
  L 405.77 118.50
  L 410.02 116.99
  L 412.66 116.38
  L 415.39 115.97
  L 421.68 115.67
  L 426.73 115.96
  L 431.58 116.80
  L 436.21 118.17
  L 440.60 120.09
  L 444.12 122.12
  L 447.44 124.54
  L 450.56 127.34
  L 453.46 130.52
  L 456.95 135.23
  L 459.73 140.08
  L 461.79 145.07
  L 463.14 150.19
  L 463.14 150.19
  L 463.14 150.19
  L 463.58 153.07
  L 463.80 156.00
  L 463.81 158.96
  L 463.59 161.97
  L 463.16 165.02
  L 462.52 168.11
  L 460.57 174.41
  L 458.86 178.42
  L 456.82 182.12
  L 454.46 185.50
  L 451.78 188.57
  L 451.78 188.57
  L 451.78 188.57
  L 449.01 191.12
  L 445.97 193.41
  L 442.66 195.42
  L 439.07 197.17
  L 433.70 199.17
  L 428.38 200.51
  L 423.09 201.18
  L 417.85 201.19
  L 417.85 201.19
  L 414.33 200.83
  L 410.84 200.16
  L 407.36 199.19
  L 403.90 197.92
  L 399.13 195.57
  L 394.75 192.65
  L 390.69 189.11
  L 387.10 185.08
  L 383.97 180.57
  L 381.38 175.69
  L 379.37 170.51
  L 377.97 165.09
  L 377.40 161.10
  L 377.21 156.77
  L 377.41 152.27
  L 377.98 147.52
  L 378.93 142.58
  L 380.24 137.53
  L 381.91 132.40
  L 383.88 127.35
  L 384.96 125.41
  L 386.43 123.89
  L 388.03 122.97
  L 390.01 122.38
  L 392.43 122.13
  L 395.83 122.15
  L 396.46 122.17
  L 398.81 121.81
  L 401.37 120.71
  Z"
/>
<path d="
  M 340.00 283.41
  L 340.00 500.99
  L 339.71 501.70
  L 339.01 501.99
  L 305.50 501.99
  L 305.13 501.87
  L 305.00 501.49
  L 305.00 270.75
  L 305.14 269.95
  L 305.55 269.06
  L 307.20 267.05
  L 316.24 258.40
  L 325.81 249.76
  L 335.23 240.93
  L 343.04 233.53
  L 349.01 228.45
  L 350.09 227.75
  L 351.24 227.28
  L 352.90 227.04
  L 363.27 226.97
  L 486.38 227.02
  L 487.78 227.15
  L 489.23 227.54
  L 490.72 228.19
  L 492.24 229.10
  L 494.17 230.56
  L 495.81 232.13
  L 497.23 233.87
  L 498.37 235.72
  L 499.70 239.09
  L 500.32 242.90
  L 500.22 247.02
  L 499.43 251.50
  L 499.20 252.30
  L 498.53 253.98
  L 497.54 255.69
  L 496.29 257.35
  L 494.66 259.13
  L 492.69 260.87
  L 490.51 262.22
  L 488.80 262.97
  L 486.97 263.52
  L 485.04 263.86
  L 483.01 263.99
  L 470.56 264.07
  L 361.45 264.01
  L 360.14 264.20
  L 360.14 264.20
  L 359.05 264.69
  L 358.04 265.48
  L 346.68 276.58
  L 344.08 278.77
  L 341.90 280.57
  L 340.46 282.09
  L 340.12 282.71
  L 340.00 283.41
  Z"
/>
<path d="
  M 484.2117 343.4609
  L 481.3751 344.4852
  L 478.4503 345.2232
  L 475.4654 345.6680
  L 472.4492 345.8152
  L 469.4306 345.6634
  L 466.4388 345.2141
  L 463.5026 344.4716
  L 460.6503 343.4431
  L 457.9093 342.1384
  L 455.3059 340.5701
  L 452.8654 338.7534
  L 450.6112 336.7057
  L 448.5650 334.4468
  L 446.7465 331.9984
  L 445.1733 329.3840
  L 443.8604 326.6289
  L 442.8205 323.7596
  L 442.0637 320.8037
  L 441.5972 317.7897
  L 441.4255 314.7466
  L 441.5503 311.7038
  L 441.9704 308.6905
  L 442.6817 305.7357
  L 443.6773 302.8679
  L 444.9478 300.1148
  L 446.4808 297.5028
  L 448.2616 295.0571
  L 450.2730 292.8012
  L 452.4957 290.7569
  L 454.9082 288.9439
  L 457.4874 287.3796
  L 460.2083 286.0791
  L 460.2083 286.0791
  L 463.0449 285.0548
  L 465.9697 284.3168
  L 468.9546 283.8720
  L 471.9708 283.7248
  L 474.9894 283.8766
  L 477.9812 284.3259
  L 480.9174 285.0684
  L 483.7697 286.0969
  L 486.5107 287.4016
  L 489.1141 288.9699
  L 491.5546 290.7866
  L 493.8088 292.8343
  L 495.8550 295.0932
  L 497.6735 297.5416
  L 499.2467 300.1560
  L 500.5596 302.9111
  L 501.5995 305.7804
  L 502.3563 308.7363
  L 502.8228 311.7503
  L 502.9945 314.7934
  L 502.8697 317.8362
  L 502.4496 320.8495
  L 501.7383 323.8043
  L 500.7427 326.6721
  L 499.4722 329.4252
  L 497.9392 332.0372
  L 496.1584 334.4829
  L 494.1470 336.7388
  L 491.9243 338.7831
  L 489.5118 340.5961
  L 486.9326 342.1604
  L 484.2117 343.4609
  Z"
/>
<path d="
  M 421.01 328.77
  L 420.66 329.63
  L 419.80 329.98
  L 364.22 329.98
  L 363.36 329.63
  L 363.01 328.77
  L 363.01 294.21
  L 363.36 293.35
  L 364.22 293.00
  L 419.80 293.00
  L 420.66 293.35
  L 421.01 294.21
  L 421.01 328.77
  Z"
/>
<path d="
  M 185.62 398.04
  L 188.07 398.47
  L 190.85 398.60
  L 207.99 398.36
  L 224.00 397.90
  L 226.56 398.01
  L 228.65 398.62
  L 230.17 399.56
  L 238.90 406.75
  L 250.47 416.93
  L 258.10 423.69
  L 258.78 424.60
  L 259.02 425.71
  L 258.98 501.00
  L 258.69 501.69
  L 258.00 501.98
  L 225.52 501.99
  L 225.15 501.83
  L 224.99 501.46
  L 224.98 442.28
  L 224.84 441.27
  L 224.44 440.25
  L 223.78 439.16
  L 222.92 438.16
  L 221.92 437.30
  L 220.84 436.63
  L 219.82 436.23
  L 218.82 436.08
  L 194.34 435.97
  L 168.20 436.13
  L 167.22 436.14
  L 164.11 436.20
  L 161.81 436.42
  L 159.87 436.87
  L 158.35 437.55
  L 155.74 438.96
  L 153.06 440.14
  L 149.29 441.37
  L 145.44 442.18
  L 141.44 442.58
  L 137.42 442.55
  L 133.31 442.09
  L 129.24 441.22
  L 125.25 439.96
  L 121.36 438.31
  L 118.43 436.67
  L 115.38 434.50
  L 112.20 431.81
  L 108.91 428.59
  L 106.11 425.36
  L 103.62 421.74
  L 101.56 417.91
  L 99.88 413.79
  L 98.65 409.53
  L 97.84 405.03
  L 97.48 400.45
  L 97.57 395.71
  L 98.11 390.96
  L 98.74 387.82
  L 99.58 384.80
  L 100.64 381.91
  L 101.91 379.13
  L 103.90 375.69
  L 106.24 372.43
  L 108.95 369.37
  L 112.02 366.48
  L 115.78 363.54
  L 119.68 361.07
  L 123.80 359.04
  L 128.05 357.49
  L 130.91 356.73
  L 133.81 356.18
  L 136.77 355.83
  L 139.77 355.69
  L 142.86 355.75
  L 145.99 356.01
  L 152.37 357.15
  L 156.66 358.49
  L 160.82 360.44
  L 164.85 362.98
  L 168.74 366.13
  L 171.74 369.05
  L 174.46 372.14
  L 176.89 375.39
  L 179.04 378.80
  L 179.04 378.80
  L 181.29 383.25
  L 183.11 387.95
  L 184.29 392.41
  L 185.03 397.35
  L 185.20 397.79
  L 185.62 398.04
  Z"
/>
<path d="
  M 376.90 398.57
  L 377.63 398.00
  L 377.90 397.13
  L 378.15 393.03
  L 378.94 388.82
  L 380.21 384.75
  L 382.01 380.63
  L 384.32 376.59
  L 387.03 372.78
  L 390.18 369.14
  L 393.65 365.81
  L 398.01 362.46
  L 402.69 359.78
  L 402.69 359.78
  L 407.19 357.94
  L 411.94 356.64
  L 416.96 355.89
  L 422.25 355.69
  L 428.04 356.07
  L 433.00 357.06
  L 436.52 358.24
  L 436.52 358.24
  L 436.52 358.24
  L 440.64 360.11
  L 444.58 362.45
  L 448.33 365.25
  L 451.91 368.52
  L 454.02 370.80
  L 455.93 373.18
  L 457.65 375.67
  L 459.17 378.26
  L 459.17 378.26
  L 459.17 378.26
  L 461.22 382.72
  L 462.75 387.46
  L 463.75 392.49
  L 464.22 397.79
  L 464.19 402.18
  L 463.78 406.43
  L 462.96 410.53
  L 461.76 414.50
  L 461.76 414.50
  L 461.76 414.50
  L 460.49 417.63
  L 458.95 420.67
  L 455.96 425.28
  L 452.42 429.43
  L 448.32 433.16
  L 443.78 436.33
  L 438.85 438.93
  L 433.61 440.90
  L 428.24 442.19
  L 422.72 442.79
  L 417.64 442.62
  L 412.50 441.66
  L 407.30 439.92
  L 402.03 437.39
  L 400.71 436.79
  L 399.35 436.43
  L 399.35 436.43
  L 398.16 436.30
  L 385.38 436.03
  L 367.93 435.98
  L 360.24 435.99
  L 359.38 435.82
  L 358.65 435.33
  L 358.16 434.60
  L 357.99 433.74
  L 358.01 399.78
  L 358.01 399.78
  L 358.24 399.22
  L 358.80 399.00
  L 375.04 398.94
  L 376.90 398.57
  Z"
/>
</g>
<g fill="#004463">
<path d="
  M 523.70 135.80
  L 521.79 135.84
  L 520.30 135.49
  L 519.88 135.40
  L 519.42 135.51
  L 517.91 136.00
  L 516.47 136.04
  L 516.47 136.04
  L 516.47 136.04
  L 515.45 135.80
  L 514.47 135.32
  L 514.08 135.15
  L 513.50 135.10
  L 511.42 135.16
  L 509.98 135.00
  L 508.63 134.63
  L 507.37 134.20
  L 504.20 133.40
  L 503.04 132.98
  L 501.84 132.60
  L 501.04 132.69
  L 500.97 132.70
  L 500.55 132.58
  L 500.37 132.18
  L 500.37 131.75
  L 500.21 131.28
  L 499.74 131.11
  L 498.19 131.15
  L 495.41 131.18
  L 493.52 130.88
  L 491.39 129.90
  L 485.41 126.32
  L 484.37 125.64
  L 483.32 124.67
  L 481.58 123.18
  L 480.98 122.82
  L 480.64 122.58
  L 480.32 122.22
  L 479.41 121.27
  L 478.00 120.35
  L 476.17 119.52
  L 473.70 118.64
  L 473.57 118.60
  L 473.18 118.36
  L 472.98 117.93
  L 472.60 117.18
  L 472.15 116.94
  L 471.54 116.87
  L 471.04 116.69
  L 470.79 116.21
  L 470.64 115.85
  L 470.27 115.69
  L 469.83 115.50
  L 469.64 115.09
  L 469.28 114.26
  L 468.94 113.95
  L 462.99 110.01
  L 461.86 109.48
  L 460.26 109.10
  L 459.88 108.90
  L 459.90 108.45
  L 459.91 108.20
  L 459.66 108.06
  L 459.44 108.07
  L 459.26 108.22
  L 459.00 108.39
  L 458.70 108.24
  L 458.65 108.14
  L 458.70 108.00
  L 458.76 107.83
  L 458.65 107.70
  L 457.96 107.55
  L 457.75 107.74
  L 448.65 99.62
  L 439.27 91.87
  L 439.27 91.87
  L 439.27 91.87
  L 427.90 83.25
  L 416.13 75.13
  L 406.39 69.04
  L 396.45 63.43
  L 386.31 58.29
  L 375.96 53.64
  L 375.96 53.64
  L 375.96 53.64
  L 375.96 53.64
  L 364.74 49.21
  L 353.30 45.33
  L 341.62 41.99
  L 329.72 39.19
  L 318.17 37.04
  L 306.62 35.47
  L 295.06 34.46
  L 283.49 34.02
  L 283.49 34.02
  L 271.19 34.18
  L 258.88 34.97
  L 246.56 36.41
  L 234.24 38.49
  L 234.06 38.17
  L 234.37 37.43
  L 234.57 37.06
  L 234.56 36.68
  L 234.59 35.52
  L 235.33 34.53
  L 235.49 34.29
  L 235.25 34.14
  L 235.21 34.13
  L 234.87 34.13
  L 235.09 34.10
  L 235.12 34.08
  L 235.24 33.97
  L 235.26 33.79
  L 234.83 30.60
  L 234.94 27.81
  L 235.10 25.70
  L 234.94 23.64
  L 234.52 21.82
  L 234.34 20.22
  L 234.74 18.78
  L 234.80 18.45
  L 234.69 18.18
  L 234.26 17.12
  L 234.27 16.30
  L 234.39 14.57
  L 234.09 12.97
  L 234.09 12.97
  L 233.12 11.12
  L 232.89 10.66
  L 232.83 10.28
  L 232.86 10.14
  L 232.96 10.04
  L 233.25 9.70
  L 232.97 9.33
  L 232.40 8.83
  L 231.85 7.74
  L 231.89 7.70
  L 231.91 7.71
  L 232.07 7.81
  L 232.25 7.72
  L 232.35 7.53
  L 232.24 7.34
  L 229.70 5.13
  L 236.91 3.85
  L 244.13 2.80
  L 251.37 1.98
  L 258.63 1.39
  L 258.63 1.39
  L 265.08 1.06
  L 274.86 0.39
  L 280.01 0.16
  L 284.84 0.54
  L 288.52 0.93
  L 292.15 1.03
  L 297.33 1.14
  L 305.92 1.77
  L 314.44 2.64
  L 322.87 3.76
  L 331.24 5.12
  L 339.52 6.73
  L 347.73 8.59
  L 355.87 10.69
  L 363.93 13.04
  L 363.93 13.04
  L 363.93 13.04
  L 363.93 13.04
  L 363.93 13.04
  L 371.61 15.54
  L 379.21 18.26
  L 386.75 21.21
  L 394.22 24.38
  L 401.62 27.79
  L 408.95 31.42
  L 416.20 35.28
  L 423.39 39.37
  L 434.93 46.56
  L 447.96 55.45
  L 458.39 63.13
  L 468.08 70.91
  L 477.01 78.78
  L 485.19 86.74
  L 491.31 93.16
  L 497.02 99.44
  L 502.28 105.57
  L 507.21 111.65
  L 511.82 117.71
  L 516.11 123.77
  L 520.06 129.79
  L 523.70 135.80
  Z"
/>
<path d="
  M 317.9366 100.7374
  L 316.9941 104.1942
  L 315.7126 107.5412
  L 314.1044 110.7462
  L 312.1849 113.7782
  L 309.9727 116.6081
  L 307.4892 119.2087
  L 304.7581 121.5548
  L 301.8058 123.6239
  L 298.6608 125.3960
  L 295.3533 126.8541
  L 291.9152 127.9842
  L 288.3795 128.7753
  L 284.7804 129.2199
  L 281.1525 129.3136
  L 277.5308 129.0556
  L 273.9500 128.4483
  L 270.4448 127.4976
  L 267.0488 126.2127
  L 263.7948 124.6059
  L 260.7141 122.6927
  L 257.8363 120.4915
  L 255.1893 118.0235
  L 252.7984 115.3125
  L 250.6868 112.3846
  L 248.8746 109.2680
  L 247.3795 105.9927
  L 246.2158 102.5903
  L 245.3946 99.0934
  L 244.9240 95.5359
  L 244.8084 91.9519
  L 245.0490 88.3760
  L 245.6434 84.8426
  L 245.6434 84.8426
  L 246.5859 81.3858
  L 247.8674 78.0388
  L 249.4756 74.8338
  L 251.3951 71.8018
  L 253.6073 68.9719
  L 256.0908 66.3713
  L 258.8219 64.0252
  L 261.7742 61.9561
  L 264.9192 60.1840
  L 268.2267 58.7259
  L 271.6648 57.5958
  L 275.2005 56.8047
  L 278.7996 56.3601
  L 282.4275 56.2664
  L 286.0492 56.5244
  L 289.6300 57.1317
  L 293.1352 58.0824
  L 296.5312 59.3673
  L 299.7852 60.9741
  L 302.8659 62.8873
  L 305.7437 65.0885
  L 308.3907 67.5565
  L 310.7816 70.2675
  L 312.8932 73.1954
  L 314.7054 76.3120
  L 316.2005 79.5873
  L 317.3642 82.9897
  L 318.1854 86.4866
  L 318.6560 90.0441
  L 318.7716 93.6281
  L 318.5310 97.2040
  L 317.9366 100.7374
  Z"
/>
<path d="
  M 159.73 120.55
  L 160.93 121.16
  L 162.33 121.64
  L 163.94 121.93
  L 167.83 121.98
  L 170.07 122.00
  L 172.09 122.31
  L 173.81 122.90
  L 175.33 123.80
  L 176.59 124.94
  L 177.67 126.39
  L 178.55 128.15
  L 179.23 130.23
  L 179.71 132.09
  L 181.92 140.92
  L 183.22 147.44
  L 183.94 153.08
  L 184.06 158.06
  L 183.47 164.33
  L 182.21 170.18
  L 180.27 175.62
  L 177.65 180.64
  L 177.65 180.64
  L 177.65 180.64
  L 177.65 180.64
  L 175.54 183.76
  L 173.12 186.69
  L 170.41 189.44
  L 167.40 192.00
  L 164.63 194.01
  L 161.76 195.77
  L 158.80 197.27
  L 155.75 198.53
  L 155.75 198.53
  L 155.75 198.53
  L 151.89 199.72
  L 147.88 200.54
  L 143.74 200.98
  L 139.46 201.04
  L 134.49 200.64
  L 129.77 199.76
  L 125.30 198.39
  L 121.09 196.53
  L 117.49 194.42
  L 114.10 191.92
  L 110.92 189.03
  L 107.94 185.73
  L 104.60 181.14
  L 101.90 176.28
  L 99.88 171.18
  L 98.55 165.90
  L 98.01 161.68
  L 97.90 157.38
  L 98.23 153.12
  L 98.99 148.81
  L 100.65 143.21
  L 103.01 137.93
  L 106.02 133.03
  L 109.63 128.59
  L 113.76 124.71
  L 118.38 121.42
  L 120.84 120.04
  L 123.40 118.82
  L 128.62 117.01
  L 131.40 116.36
  L 134.25 115.92
  L 140.12 115.54
  L 145.63 115.83
  L 150.74 116.79
  L 155.55 118.43
  L 159.73 120.55
  Z"
/>
<path d="
  M 306.31 150.74
  L 308.13 146.53
  L 310.35 142.93
  L 312.96 139.95
  L 315.97 137.57
  L 318.66 136.11
  L 321.60 135.04
  L 323.90 134.50
  L 326.46 134.13
  L 332.30 133.88
  L 358.05 134.01
  L 358.76 134.25
  L 359.00 134.96
  L 359.01 168.99
  L 358.72 169.70
  L 358.01 170.00
  L 345.08 170.01
  L 343.17 170.39
  L 341.56 171.47
  L 341.56 171.47
  L 340.48 173.08
  L 340.10 174.99
  L 340.13 194.19
  L 339.83 199.21
  L 339.49 200.44
  L 338.71 201.79
  L 337.56 203.19
  L 335.86 204.88
  L 335.86 204.88
  L 321.19 218.59
  L 306.36 231.98
  L 305.63 232.16
  L 305.07 231.67
  L 305.02 231.38
  L 305.01 158.00
  L 305.34 154.37
  L 306.31 150.74
  Z"
/>
<path d="
  M 243.76 136.06
  L 247.31 137.91
  L 250.38 140.07
  L 252.99 142.54
  L 255.13 145.31
  L 255.13 145.31
  L 256.82 148.44
  L 258.03 151.88
  L 258.76 155.64
  L 259.00 159.71
  L 259.00 295.20
  L 258.97 295.34
  L 258.69 295.60
  L 258.31 295.52
  L 228.09 269.76
  L 226.30 267.92
  L 225.29 266.04
  L 224.96 263.93
  L 224.96 176.91
  L 224.61 174.55
  L 223.72 172.30
  L 222.57 170.84
  L 221.20 170.13
  L 220.59 170.06
  L 204.14 170.01
  L 203.35 169.86
  L 202.68 169.42
  L 202.22 168.76
  L 202.05 167.97
  L 201.98 157.78
  L 202.16 147.67
  L 202.58 142.45
  L 202.96 138.02
  L 202.97 134.63
  L 203.13 134.19
  L 203.56 134.00
  L 203.56 134.00
  L 203.57 134.00
  L 236.25 133.98
  L 237.80 134.11
  L 239.56 134.50
  L 243.76 136.06
  Z"
/>
<path d="
  M 120.99 240.10
  L 120.84 243.10
  L 120.40 246.08
  L 119.67 248.99
  L 118.66 251.83
  L 117.37 254.54
  L 115.83 257.12
  L 114.04 259.54
  L 112.02 261.77
  L 109.79 263.79
  L 107.37 265.58
  L 104.79 267.12
  L 102.08 268.41
  L 99.24 269.42
  L 96.33 270.15
  L 93.35 270.59
  L 90.35 270.74
  L 87.35 270.59
  L 84.37 270.15
  L 81.46 269.42
  L 78.62 268.41
  L 75.91 267.12
  L 73.33 265.58
  L 70.91 263.79
  L 68.68 261.77
  L 66.66 259.54
  L 64.87 257.12
  L 63.33 254.54
  L 62.04 251.83
  L 61.03 248.99
  L 60.30 246.08
  L 59.86 243.10
  L 59.71 240.10
  L 59.86 237.10
  L 60.30 234.12
  L 61.03 231.21
  L 62.04 228.37
  L 63.33 225.66
  L 64.87 223.08
  L 66.66 220.66
  L 68.68 218.43
  L 70.91 216.41
  L 73.33 214.62
  L 75.91 213.08
  L 78.62 211.79
  L 81.46 210.78
  L 84.37 210.05
  L 87.35 209.61
  L 90.35 209.46
  L 93.35 209.61
  L 96.33 210.05
  L 99.24 210.78
  L 102.08 211.79
  L 104.79 213.08
  L 107.37 214.62
  L 109.79 216.41
  L 112.02 218.43
  L 114.04 220.66
  L 115.83 223.08
  L 117.37 225.66
  L 118.66 228.37
  L 119.67 231.21
  L 120.40 234.12
  L 120.84 237.10
  L 120.99 240.10
  Z"
/>
<path d="
  M 198.9691 263.1999
  L 198.7250 263.7863
  L 198.1377 264.0284
  L 142.6178 263.9315
  L 142.0313 263.6874
  L 141.7892 263.1001
  L 141.8509 227.7801
  L 142.0950 227.1937
  L 142.6823 226.9516
  L 198.2022 227.0485
  L 198.7887 227.2926
  L 199.0308 227.8799
  L 198.9691 263.1999
  Z"
/>
<path d="
  M 79.91 343.08
  L 76.18 341.20
  L 72.87 339.00
  L 69.99 336.49
  L 67.54 333.65
  L 67.54 333.65
  L 67.54 333.65
  L 66.23 331.73
  L 65.08 329.68
  L 63.37 325.74
  L 62.24 321.85
  L 61.70 318.02
  L 61.74 314.23
  L 61.74 314.23
  L 62.30 310.74
  L 63.37 307.30
  L 64.95 303.90
  L 67.03 300.55
  L 68.71 298.49
  L 70.57 296.82
  L 72.38 295.63
  L 74.30 294.70
  L 76.39 293.97
  L 78.80 293.41
  L 84.21 292.84
  L 92.07 292.85
  L 105.61 293.01
  L 212.79 292.94
  L 213.89 293.03
  L 215.25 293.40
  L 216.67 294.12
  L 219.91 296.72
  L 220.39 297.15
  L 253.68 327.16
  L 254.55 327.93
  L 256.52 329.74
  L 257.81 331.27
  L 258.65 332.82
  L 259.00 334.35
  L 259.01 334.75
  L 259.00 388.67
  L 258.90 389.48
  L 258.61 389.87
  L 258.61 389.87
  L 258.61 389.87
  L 258.12 389.85
  L 257.43 389.40
  L 241.46 375.90
  L 226.03 362.51
  L 225.36 361.68
  L 225.10 360.96
  L 225.03 360.15
  L 224.86 353.02
  L 224.03 346.25
  L 223.84 345.72
  L 223.52 345.33
  L 208.19 332.08
  L 207.02 331.21
  L 205.72 330.52
  L 204.49 330.12
  L 203.20 329.98
  L 118.99 330.03
  L 117.93 330.15
  L 117.01 330.52
  L 115.83 331.64
  L 113.35 334.81
  L 110.57 337.63
  L 107.51 340.06
  L 104.22 342.07
  L 100.75 343.63
  L 97.13 344.72
  L 93.48 345.31
  L 89.76 345.40
  L 87.26 345.17
  L 84.74 344.70
  L 82.32 344.01
  L 79.91 343.08
  Z"
/>
<path d="
  M 72.56 409.99
  L 70.76 408.91
  L 69.04 408.18
  L 68.92 408.18
  L 68.84 408.26
  L 68.82 408.36
  L 68.78 408.49
  L 68.68 408.39
  L 68.25 407.80
  L 66.98 406.87
  L 65.21 406.37
  L 65.00 406.40
  L 64.83 406.58
  L 64.42 406.75
  L 52.82 402.90
  L 52.45 402.71
  L 52.14 402.40
  L 51.06 401.14
  L 51.06 401.14
  L 49.66 400.09
  L 48.01 399.32
  L 46.15 398.54
  L 44.47 397.60
  L 42.98 396.49
  L 41.68 395.22
  L 41.53 395.04
  L 40.59 394.01
  L 38.26 391.94
  L 37.12 391.01
  L 34.84 388.59
  L 34.53 388.28
  L 34.02 388.00
  L 33.55 387.75
  L 32.74 386.73
  L 32.13 385.84
  L 28.15 381.50
  L 24.46 377.13
  L 23.32 375.84
  L 22.01 374.34
  L 21.17 373.03
  L 20.42 371.84
  L 19.45 370.73
  L 17.37 368.57
  L 17.09 368.35
  L 16.70 368.24
  L 16.30 368.10
  L 16.03 367.80
  L 15.47 367.26
  L 15.47 367.26
  L 14.95 367.14
  L 14.33 367.25
  L 13.97 367.04
  L 13.97 367.01
  L 13.70 365.54
  L 13.10 364.81
  L 12.85 364.74
  L 9.50 353.72
  L 6.54 342.60
  L 6.54 342.60
  L 3.50 328.97
  L 2.70 324.45
  L 2.26 320.73
  L 2.18 317.81
  L 2.46 315.69
  L 3.36 313.21
  L 4.65 311.00
  L 4.65 311.00
  L 4.65 311.00
  L 6.30 309.07
  L 8.33 307.42
  L 10.73 306.02
  L 13.51 304.90
  L 15.70 304.34
  L 17.88 304.10
  L 20.46 304.21
  L 22.96 304.73
  L 25.42 305.67
  L 27.73 306.97
  L 29.86 308.63
  L 31.74 310.59
  L 33.34 312.81
  L 34.63 315.25
  L 36.13 319.29
  L 37.08 323.26
  L 39.10 333.30
  L 41.70 343.05
  L 46.27 356.87
  L 51.81 371.19
  L 55.70 380.05
  L 59.96 388.72
  L 65.96 399.52
  L 72.56 409.99
  Z"
/>
</g>
<path fill="#005072" d="
  M 229.70 5.13
  L 232.24 7.34
  L 232.35 7.53
  L 232.25 7.72
  L 232.07 7.81
  L 231.91 7.71
  L 231.89 7.70
  L 231.85 7.74
  L 232.40 8.83
  L 232.97 9.33
  L 233.25 9.70
  L 232.96 10.04
  L 232.86 10.14
  L 232.83 10.28
  L 232.89 10.66
  L 233.12 11.12
  L 234.09 12.97
  L 234.09 12.97
  L 234.39 14.57
  L 234.27 16.30
  L 234.26 17.12
  L 234.69 18.18
  L 234.80 18.45
  L 234.74 18.78
  L 234.34 20.22
  L 234.52 21.82
  L 234.94 23.64
  L 235.10 25.70
  L 234.94 27.81
  L 234.83 30.60
  L 235.26 33.79
  L 235.24 33.97
  L 235.12 34.08
  L 235.09 34.10
  L 234.87 34.13
  L 235.21 34.13
  L 235.25 34.14
  L 235.49 34.29
  L 235.33 34.53
  L 234.59 35.52
  L 234.56 36.68
  L 234.57 37.06
  L 234.37 37.43
  L 234.06 38.17
  L 234.24 38.49
  L 219.04 42.22
  L 207.87 45.31
  L 197.16 48.80
  L 186.92 52.68
  L 177.13 56.96
  L 166.88 62.07
  L 156.41 67.90
  L 145.73 74.44
  L 134.82 81.71
  L 126.19 88.00
  L 117.99 94.63
  L 111.92 99.96
  L 106.06 105.44
  L 100.41 111.06
  L 94.97 116.83
  L 89.74 122.75
  L 84.71 128.81
  L 79.89 135.02
  L 75.29 141.37
  L 75.29 141.37
  L 75.29 141.37
  L 68.13 152.18
  L 61.55 163.39
  L 55.53 175.00
  L 50.08 187.01
  L 47.30 193.92
  L 44.75 200.97
  L 42.42 208.15
  L 40.33 215.48
  L 38.46 222.94
  L 36.83 230.54
  L 35.42 238.28
  L 34.24 246.16
  L 33.47 254.12
  L 33.00 264.93
  L 32.85 269.35
  L 32.68 270.86
  L 32.30 272.34
  L 31.68 273.87
  L 30.86 275.33
  L 28.62 278.12
  L 25.80 280.48
  L 22.53 282.33
  L 19.03 283.51
  L 15.58 283.90
  L 14.01 283.79
  L 12.48 283.48
  L 10.08 282.66
  L 7.92 281.60
  L 6.02 280.32
  L 4.37 278.80
  L 4.37 278.80
  L 4.37 278.80
  L 2.79 276.77
  L 1.53 274.44
  L 0.60 271.80
  L 0.00 268.86
  L 0.00 256.75
  L 0.52 249.51
  L 1.43 238.87
  L 3.08 227.67
  L 5.48 215.76
  L 8.67 202.89
  L 11.21 194.08
  L 14.02 185.46
  L 17.12 177.02
  L 20.49 168.78
  L 24.13 160.72
  L 28.06 152.84
  L 32.26 145.16
  L 36.74 137.66
  L 41.70 129.95
  L 46.82 122.48
  L 52.10 115.25
  L 57.54 108.26
  L 63.13 101.50
  L 68.89 94.97
  L 74.80 88.69
  L 80.87 82.64
  L 87.98 76.01
  L 95.27 69.63
  L 102.74 63.51
  L 110.39 57.66
  L 118.25 52.03
  L 126.28 46.68
  L 134.46 41.60
  L 142.80 36.79
  L 153.03 31.38
  L 163.46 26.38
  L 174.09 21.78
  L 184.91 17.60
  L 195.86 13.85
  L 206.98 10.52
  L 218.27 7.61
  L 229.70 5.13
  Z"
/>
</svg>
